<mxfile host="app.diagrams.net" modified="2024-01-01T12:00:49.120Z" agent="Mozilla/5.0 (Macintosh; Intel Mac OS X 10_15_7) AppleWebKit/537.36 (KHTML, like Gecko) Chrome/120.0.0.0 Safari/537.36" etag="gYkgIQcQasH9qYwhlgDK" version="22.1.16" type="github">
  <diagram id="JWcyWDvUZBTDGTdBfnq3" name="第 1 页">
    <mxGraphModel dx="1026" dy="651" grid="0" gridSize="10" guides="1" tooltips="1" connect="1" arrows="1" fold="1" page="0" pageScale="1" pageWidth="827" pageHeight="1169" math="0" shadow="0">
      <root>
        <mxCell id="0" />
        <mxCell id="1" parent="0" />
        <mxCell id="NG_46tWYy9rnFi1B4s7Z-3" value="" style="edgeStyle=orthogonalEdgeStyle;rounded=0;orthogonalLoop=1;jettySize=auto;html=1;" edge="1" parent="1" source="NG_46tWYy9rnFi1B4s7Z-1" target="NG_46tWYy9rnFi1B4s7Z-2">
          <mxGeometry relative="1" as="geometry" />
        </mxCell>
        <mxCell id="NG_46tWYy9rnFi1B4s7Z-1" value="容器启动" style="ellipse;whiteSpace=wrap;html=1;aspect=fixed;fillColor=default;gradientColor=none;" vertex="1" parent="1">
          <mxGeometry x="130" y="70" width="57" height="57" as="geometry" />
        </mxCell>
        <mxCell id="NG_46tWYy9rnFi1B4s7Z-5" value="" style="edgeStyle=orthogonalEdgeStyle;rounded=0;orthogonalLoop=1;jettySize=auto;html=1;" edge="1" parent="1" source="NG_46tWYy9rnFi1B4s7Z-2" target="NG_46tWYy9rnFi1B4s7Z-4">
          <mxGeometry relative="1" as="geometry" />
        </mxCell>
        <mxCell id="NG_46tWYy9rnFi1B4s7Z-2" value="1.实例化 bean" style="rounded=1;whiteSpace=wrap;html=1;gradientColor=none;" vertex="1" parent="1">
          <mxGeometry x="98.5" y="205.5" width="120" height="60" as="geometry" />
        </mxCell>
        <mxCell id="NG_46tWYy9rnFi1B4s7Z-7" value="" style="edgeStyle=orthogonalEdgeStyle;rounded=0;orthogonalLoop=1;jettySize=auto;html=1;" edge="1" parent="1" source="NG_46tWYy9rnFi1B4s7Z-4" target="NG_46tWYy9rnFi1B4s7Z-6">
          <mxGeometry relative="1" as="geometry" />
        </mxCell>
        <mxCell id="NG_46tWYy9rnFi1B4s7Z-4" value="2.设置对象属性&lt;br&gt;（依赖注入）" style="rounded=1;whiteSpace=wrap;html=1;gradientColor=none;" vertex="1" parent="1">
          <mxGeometry x="98.5" y="345.5" width="120" height="60" as="geometry" />
        </mxCell>
        <mxCell id="NG_46tWYy9rnFi1B4s7Z-9" value="" style="edgeStyle=orthogonalEdgeStyle;rounded=0;orthogonalLoop=1;jettySize=auto;html=1;" edge="1" parent="1" source="NG_46tWYy9rnFi1B4s7Z-6" target="NG_46tWYy9rnFi1B4s7Z-8">
          <mxGeometry relative="1" as="geometry" />
        </mxCell>
        <mxCell id="NG_46tWYy9rnFi1B4s7Z-6" value="3.处理 aware 相关接口" style="rounded=1;whiteSpace=wrap;html=1;gradientColor=none;" vertex="1" parent="1">
          <mxGeometry x="98.5" y="485.5" width="120" height="60" as="geometry" />
        </mxCell>
        <mxCell id="NG_46tWYy9rnFi1B4s7Z-11" value="" style="edgeStyle=orthogonalEdgeStyle;rounded=0;orthogonalLoop=1;jettySize=auto;html=1;" edge="1" parent="1" source="NG_46tWYy9rnFi1B4s7Z-8" target="NG_46tWYy9rnFi1B4s7Z-10">
          <mxGeometry relative="1" as="geometry" />
        </mxCell>
        <mxCell id="NG_46tWYy9rnFi1B4s7Z-8" value="4.BeanPostProcessor 前置处理" style="rounded=1;whiteSpace=wrap;html=1;gradientColor=none;" vertex="1" parent="1">
          <mxGeometry x="298.5" y="485.5" width="120" height="60" as="geometry" />
        </mxCell>
        <mxCell id="NG_46tWYy9rnFi1B4s7Z-13" value="" style="edgeStyle=orthogonalEdgeStyle;rounded=0;orthogonalLoop=1;jettySize=auto;html=1;" edge="1" parent="1" source="NG_46tWYy9rnFi1B4s7Z-10" target="NG_46tWYy9rnFi1B4s7Z-12">
          <mxGeometry relative="1" as="geometry" />
        </mxCell>
        <mxCell id="NG_46tWYy9rnFi1B4s7Z-10" value="5.处理InitializingBean接口" style="rounded=1;whiteSpace=wrap;html=1;gradientColor=none;" vertex="1" parent="1">
          <mxGeometry x="298.5" y="345.5" width="120" height="60" as="geometry" />
        </mxCell>
        <mxCell id="NG_46tWYy9rnFi1B4s7Z-15" value="" style="edgeStyle=orthogonalEdgeStyle;rounded=0;orthogonalLoop=1;jettySize=auto;html=1;" edge="1" parent="1" source="NG_46tWYy9rnFi1B4s7Z-12" target="NG_46tWYy9rnFi1B4s7Z-14">
          <mxGeometry relative="1" as="geometry" />
        </mxCell>
        <mxCell id="NG_46tWYy9rnFi1B4s7Z-12" value="6.是否配置自定义的init-method 方法" style="rounded=1;whiteSpace=wrap;html=1;gradientColor=none;" vertex="1" parent="1">
          <mxGeometry x="298.5" y="205.5" width="120" height="60" as="geometry" />
        </mxCell>
        <mxCell id="NG_46tWYy9rnFi1B4s7Z-17" value="" style="edgeStyle=orthogonalEdgeStyle;rounded=0;orthogonalLoop=1;jettySize=auto;html=1;" edge="1" parent="1" source="NG_46tWYy9rnFi1B4s7Z-14" target="NG_46tWYy9rnFi1B4s7Z-16">
          <mxGeometry relative="1" as="geometry" />
        </mxCell>
        <mxCell id="NG_46tWYy9rnFi1B4s7Z-14" value="7.BeanPostProcessor 后置处理" style="rounded=1;whiteSpace=wrap;html=1;gradientColor=none;" vertex="1" parent="1">
          <mxGeometry x="298.5" y="65.5" width="120" height="60" as="geometry" />
        </mxCell>
        <mxCell id="NG_46tWYy9rnFi1B4s7Z-19" value="" style="edgeStyle=orthogonalEdgeStyle;rounded=0;orthogonalLoop=1;jettySize=auto;html=1;" edge="1" parent="1" source="NG_46tWYy9rnFi1B4s7Z-16" target="NG_46tWYy9rnFi1B4s7Z-18">
          <mxGeometry relative="1" as="geometry" />
        </mxCell>
        <mxCell id="NG_46tWYy9rnFi1B4s7Z-16" value="此时Bean 已被正确创建，可在系统中使用" style="rounded=1;whiteSpace=wrap;html=1;gradientColor=none;" vertex="1" parent="1">
          <mxGeometry x="498.5" y="65.5" width="120" height="60" as="geometry" />
        </mxCell>
        <mxCell id="NG_46tWYy9rnFi1B4s7Z-21" value="" style="edgeStyle=orthogonalEdgeStyle;rounded=0;orthogonalLoop=1;jettySize=auto;html=1;" edge="1" parent="1" source="NG_46tWYy9rnFi1B4s7Z-18" target="NG_46tWYy9rnFi1B4s7Z-20">
          <mxGeometry relative="1" as="geometry" />
        </mxCell>
        <mxCell id="NG_46tWYy9rnFi1B4s7Z-18" value="8.是否实现DisposableBean接口" style="rounded=1;whiteSpace=wrap;html=1;gradientColor=none;" vertex="1" parent="1">
          <mxGeometry x="498.5" y="205.5" width="120" height="60" as="geometry" />
        </mxCell>
        <mxCell id="NG_46tWYy9rnFi1B4s7Z-20" value="9.是否配置自定义的destory-method方法" style="rounded=1;whiteSpace=wrap;html=1;gradientColor=none;" vertex="1" parent="1">
          <mxGeometry x="498.5" y="345.5" width="120" height="60" as="geometry" />
        </mxCell>
      </root>
    </mxGraphModel>
  </diagram>
</mxfile>
